<mxfile host="app.diagrams.net" agent="Mozilla/5.0 (Windows NT 10.0; Win64; x64) AppleWebKit/537.36 (KHTML, like Gecko) Chrome/137.0.0.0 Safari/537.36" version="27.1.4">
  <diagram name="Page-1" id="JxK6Z9mksL-0HM-H_5az">
    <mxGraphModel grid="1" page="1" gridSize="10" guides="1" tooltips="1" connect="1" arrows="1" fold="1" pageScale="1" pageWidth="850" pageHeight="1100" math="0" shadow="0">
      <root>
        <mxCell id="0" />
        <mxCell id="1" parent="0" />
        <mxCell id="ATuWQ-v3E2589OPJfiS1-10" style="edgeStyle=orthogonalEdgeStyle;rounded=0;orthogonalLoop=1;jettySize=auto;html=1;entryX=0.5;entryY=1;entryDx=0;entryDy=0;" edge="1" parent="1" source="ATuWQ-v3E2589OPJfiS1-1" target="ATuWQ-v3E2589OPJfiS1-2">
          <mxGeometry relative="1" as="geometry" />
        </mxCell>
        <mxCell id="ATuWQ-v3E2589OPJfiS1-12" value="1" style="edgeLabel;html=1;align=center;verticalAlign=middle;resizable=0;points=[];" vertex="1" connectable="0" parent="ATuWQ-v3E2589OPJfiS1-10">
          <mxGeometry x="-0.6933" y="2" relative="1" as="geometry">
            <mxPoint as="offset" />
          </mxGeometry>
        </mxCell>
        <mxCell id="ATuWQ-v3E2589OPJfiS1-13" value="N" style="edgeLabel;html=1;align=center;verticalAlign=middle;resizable=0;points=[];" vertex="1" connectable="0" parent="ATuWQ-v3E2589OPJfiS1-10">
          <mxGeometry x="0.7029" relative="1" as="geometry">
            <mxPoint as="offset" />
          </mxGeometry>
        </mxCell>
        <mxCell id="ATuWQ-v3E2589OPJfiS1-15" value="" style="edgeStyle=orthogonalEdgeStyle;rounded=0;orthogonalLoop=1;jettySize=auto;html=1;" edge="1" parent="1" source="ATuWQ-v3E2589OPJfiS1-1" target="ATuWQ-v3E2589OPJfiS1-14">
          <mxGeometry relative="1" as="geometry" />
        </mxCell>
        <mxCell id="ATuWQ-v3E2589OPJfiS1-17" value="1" style="edgeLabel;html=1;align=center;verticalAlign=middle;resizable=0;points=[];" vertex="1" connectable="0" parent="ATuWQ-v3E2589OPJfiS1-15">
          <mxGeometry x="0.0315" y="3" relative="1" as="geometry">
            <mxPoint x="-1" as="offset" />
          </mxGeometry>
        </mxCell>
        <mxCell id="ADrp1U_Bql61wqkcuQXL-4" value="" style="edgeStyle=orthogonalEdgeStyle;rounded=0;orthogonalLoop=1;jettySize=auto;html=1;" edge="1" parent="1" source="ATuWQ-v3E2589OPJfiS1-1" target="ADrp1U_Bql61wqkcuQXL-3">
          <mxGeometry relative="1" as="geometry" />
        </mxCell>
        <mxCell id="ADrp1U_Bql61wqkcuQXL-12" value="" style="edgeStyle=orthogonalEdgeStyle;rounded=0;orthogonalLoop=1;jettySize=auto;html=1;" edge="1" parent="1" source="ATuWQ-v3E2589OPJfiS1-1" target="ADrp1U_Bql61wqkcuQXL-11">
          <mxGeometry relative="1" as="geometry" />
        </mxCell>
        <mxCell id="ADrp1U_Bql61wqkcuQXL-14" value="1" style="edgeLabel;html=1;align=center;verticalAlign=middle;resizable=0;points=[];" connectable="0" vertex="1" parent="ADrp1U_Bql61wqkcuQXL-12">
          <mxGeometry x="-0.1448" y="-3" relative="1" as="geometry">
            <mxPoint as="offset" />
          </mxGeometry>
        </mxCell>
        <mxCell id="ADrp1U_Bql61wqkcuQXL-27" value="" style="edgeStyle=orthogonalEdgeStyle;rounded=0;orthogonalLoop=1;jettySize=auto;html=1;" edge="1" parent="1" source="ATuWQ-v3E2589OPJfiS1-1" target="ATuWQ-v3E2589OPJfiS1-14">
          <mxGeometry relative="1" as="geometry" />
        </mxCell>
        <mxCell id="ATuWQ-v3E2589OPJfiS1-1" value="&lt;div style=&quot;&quot;&gt;&lt;span style=&quot;background-color: transparent; color: light-dark(rgb(0, 0, 0), rgb(255, 255, 255));&quot;&gt;CUSTOMER&lt;/span&gt;&lt;/div&gt;&lt;div style=&quot;&quot;&gt;&lt;span style=&quot;background-color: transparent; color: light-dark(rgb(0, 0, 0), rgb(255, 255, 255));&quot;&gt;&lt;br&gt;&lt;/span&gt;&lt;/div&gt;&lt;div&gt;&lt;div style=&quot;text-align: left;&quot;&gt;-customer_id (PK, INT,AUTO_INCREMENT)&lt;/div&gt;&lt;div style=&quot;text-align: left;&quot;&gt;&lt;br&gt;&lt;/div&gt;&lt;div style=&quot;text-align: left;&quot;&gt;- name (VARCHAR(100))&lt;/div&gt;&lt;div style=&quot;text-align: left;&quot;&gt;&lt;br&gt;&lt;/div&gt;&lt;div style=&quot;text-align: left;&quot;&gt;- email (VARCHAR(100), UNIQUE)&lt;/div&gt;&lt;div style=&quot;text-align: left;&quot;&gt;&lt;br&gt;&lt;/div&gt;&lt;div style=&quot;text-align: left;&quot;&gt;- password (VARCHAR(255))&lt;/div&gt;&lt;div style=&quot;text-align: left;&quot;&gt;&lt;br&gt;&lt;/div&gt;&lt;div style=&quot;text-align: left;&quot;&gt;- contact_number (VARCHAR(15))&lt;/div&gt;&lt;div style=&quot;text-align: left;&quot;&gt;&lt;br&gt;&lt;/div&gt;&lt;div style=&quot;text-align: left;&quot;&gt;- address (TEXT)&lt;/div&gt;&lt;div style=&quot;text-align: left;&quot;&gt;&lt;br&gt;&lt;/div&gt;&lt;div style=&quot;text-align: left;&quot;&gt;- date_of_birth (DATE)&lt;/div&gt;&lt;div style=&quot;text-align: left;&quot;&gt;&lt;br&gt;&lt;/div&gt;&lt;div style=&quot;text-align: left;&quot;&gt;- age (INT) — calculated&lt;/div&gt;&lt;div style=&quot;text-align: left;&quot;&gt;&lt;br&gt;&lt;/div&gt;&lt;div style=&quot;text-align: left;&quot;&gt;- aadhar_number (VARCHAR(12), UNIQUE)&lt;/div&gt;&lt;div style=&quot;text-align: left;&quot;&gt;&lt;br&gt;&lt;/div&gt;&lt;div style=&quot;text-align: left;&quot;&gt;- pan_number (VARCHAR(10), UNIQUE)&lt;/div&gt;&lt;div style=&quot;text-align: left;&quot;&gt;&lt;br&gt;&lt;/div&gt;&lt;div style=&quot;text-align: left;&quot;&gt;- created_at (DATETIME)&lt;/div&gt;&lt;div style=&quot;text-align: left;&quot;&gt;&lt;br&gt;&lt;/div&gt;&lt;div style=&quot;text-align: left;&quot;&gt;-updated_at (DATETIME)&lt;/div&gt;&lt;/div&gt;&lt;div&gt;&lt;br&gt;&lt;/div&gt;" style="rounded=0;whiteSpace=wrap;html=1;" vertex="1" parent="1">
          <mxGeometry x="-230" y="-610" width="250" height="390" as="geometry" />
        </mxCell>
        <mxCell id="ADrp1U_Bql61wqkcuQXL-17" value="" style="edgeStyle=orthogonalEdgeStyle;rounded=0;orthogonalLoop=1;jettySize=auto;html=1;" edge="1" parent="1" source="ATuWQ-v3E2589OPJfiS1-2" target="ADrp1U_Bql61wqkcuQXL-16">
          <mxGeometry relative="1" as="geometry" />
        </mxCell>
        <mxCell id="ADrp1U_Bql61wqkcuQXL-19" value="1" style="edgeLabel;html=1;align=center;verticalAlign=middle;resizable=0;points=[];" connectable="0" vertex="1" parent="ADrp1U_Bql61wqkcuQXL-17">
          <mxGeometry x="-0.36" y="-3" relative="1" as="geometry">
            <mxPoint as="offset" />
          </mxGeometry>
        </mxCell>
        <mxCell id="ATuWQ-v3E2589OPJfiS1-2" value="ACCOUNT&lt;div&gt;&lt;br&gt;&lt;div&gt;&lt;div style=&quot;text-align: left;&quot;&gt;- account_id (PK, INT, AUTO_INCREMENT)&lt;/div&gt;&lt;div style=&quot;text-align: left;&quot;&gt;&lt;br&gt;&lt;/div&gt;&lt;div style=&quot;text-align: left;&quot;&gt;- customer_id (FK → Customers.customer_id)&lt;/div&gt;&lt;div style=&quot;text-align: left;&quot;&gt;&lt;br&gt;&lt;/div&gt;&lt;div style=&quot;text-align: left;&quot;&gt;- account_type (ENUM: &#39;Savings&#39;, &#39;Checking&#39;, &#39;Business&#39;)&lt;/div&gt;&lt;div style=&quot;text-align: left;&quot;&gt;&lt;br&gt;&lt;/div&gt;&lt;div style=&quot;text-align: left;&quot;&gt;- account_number (VARCHAR(20), UNIQUE)&lt;/div&gt;&lt;div style=&quot;text-align: left;&quot;&gt;&lt;br&gt;&lt;/div&gt;&lt;div style=&quot;text-align: left;&quot;&gt;- ifsc_code (VARCHAR(11))&lt;/div&gt;&lt;div style=&quot;text-align: left;&quot;&gt;&lt;br&gt;&lt;/div&gt;&lt;div style=&quot;text-align: left;&quot;&gt;- branch_id (FK → Branches.branch_id)&lt;/div&gt;&lt;div style=&quot;text-align: left;&quot;&gt;&lt;br&gt;&lt;/div&gt;&lt;div style=&quot;text-align: left;&quot;&gt;- balance (DECIMAL(15,2))&lt;/div&gt;&lt;div style=&quot;text-align: left;&quot;&gt;&lt;br&gt;&lt;/div&gt;&lt;div style=&quot;text-align: left;&quot;&gt;- status (ENUM: &#39;Active&#39;, &#39;Pending&#39;, &#39;Closed&#39;)&lt;/div&gt;&lt;div style=&quot;text-align: left;&quot;&gt;&lt;br&gt;&lt;/div&gt;&lt;div style=&quot;text-align: left;&quot;&gt;- created_at (DATETIME)&lt;/div&gt;&lt;div style=&quot;text-align: left;&quot;&gt;&lt;br&gt;&lt;/div&gt;&lt;div style=&quot;text-align: left;&quot;&gt;- updated_at (DATETIME)&lt;/div&gt;&lt;/div&gt;&lt;div&gt;&lt;br&gt;&lt;/div&gt;&lt;/div&gt;" style="rounded=0;whiteSpace=wrap;html=1;" vertex="1" parent="1">
          <mxGeometry x="-230" y="-1090" width="250" height="350" as="geometry" />
        </mxCell>
        <mxCell id="ATuWQ-v3E2589OPJfiS1-3" value="&lt;div style=&quot;text-align: center;&quot;&gt;&lt;span style=&quot;background-color: transparent; color: light-dark(rgb(0, 0, 0), rgb(255, 255, 255));&quot;&gt;TRANSACTION&lt;/span&gt;&lt;/div&gt;&lt;div style=&quot;text-align: center;&quot;&gt;&lt;span style=&quot;background-color: transparent; color: light-dark(rgb(0, 0, 0), rgb(255, 255, 255));&quot;&gt;&lt;br&gt;&lt;/span&gt;&lt;/div&gt;&lt;div&gt;&lt;div&gt;- transaction_id (PK, INT, AUTO_INCREMENT)&lt;/div&gt;&lt;div&gt;&lt;br&gt;&lt;/div&gt;&lt;div&gt;- account_id (FK → Accounts.account_id)&lt;/div&gt;&lt;div&gt;&lt;br&gt;&lt;/div&gt;&lt;div&gt;- transaction_type (ENUM: &#39;Deposit&#39;, &#39;Withdrawal&#39;, &#39;Transfer&#39;)&lt;/div&gt;&lt;div&gt;&lt;br&gt;&lt;/div&gt;&lt;div&gt;- amount (DECIMAL(15,2))&lt;/div&gt;&lt;div&gt;&lt;br&gt;&lt;/div&gt;&lt;div&gt;- destination_account_id (FK → Accounts.account_id, NULLABLE)&lt;/div&gt;&lt;div&gt;&lt;br&gt;&lt;/div&gt;&lt;div&gt;- beneficiary_id (FK → Beneficiaries.beneficiary_id, NULLABLE)&lt;/div&gt;&lt;div&gt;&lt;br&gt;&lt;/div&gt;&lt;div&gt;- transaction_date (DATETIME)&lt;/div&gt;&lt;div&gt;&lt;br&gt;&lt;/div&gt;&lt;div&gt;- status (ENUM: &#39;Completed&#39;, &#39;Pending&#39;, &#39;Failed&#39;)&lt;/div&gt;&lt;div&gt;&lt;br&gt;&lt;/div&gt;&lt;div&gt;- description (TEXT)&lt;/div&gt;&lt;/div&gt;" style="rounded=0;whiteSpace=wrap;html=1;align=left;" vertex="1" parent="1">
          <mxGeometry x="320" y="-1000" width="250" height="360" as="geometry" />
        </mxCell>
        <mxCell id="ADrp1U_Bql61wqkcuQXL-7" value="" style="edgeStyle=orthogonalEdgeStyle;rounded=0;orthogonalLoop=1;jettySize=auto;html=1;" edge="1" parent="1" source="ATuWQ-v3E2589OPJfiS1-4" target="ADrp1U_Bql61wqkcuQXL-6">
          <mxGeometry relative="1" as="geometry" />
        </mxCell>
        <mxCell id="ADrp1U_Bql61wqkcuQXL-9" value="1" style="edgeLabel;html=1;align=center;verticalAlign=middle;resizable=0;points=[];" connectable="0" vertex="1" parent="ADrp1U_Bql61wqkcuQXL-7">
          <mxGeometry x="-0.04" y="2" relative="1" as="geometry">
            <mxPoint as="offset" />
          </mxGeometry>
        </mxCell>
        <mxCell id="ATuWQ-v3E2589OPJfiS1-4" value="&lt;div style=&quot;text-align: center;&quot;&gt;&lt;span style=&quot;background-color: transparent; color: light-dark(rgb(0, 0, 0), rgb(255, 255, 255));&quot;&gt;BRANCH&lt;/span&gt;&lt;/div&gt;&lt;div style=&quot;text-align: center;&quot;&gt;&lt;span style=&quot;background-color: transparent; color: light-dark(rgb(0, 0, 0), rgb(255, 255, 255));&quot;&gt;&lt;br&gt;&lt;/span&gt;&lt;/div&gt;&lt;div&gt;&lt;div&gt;- branch_id (PK, INT, AUTO_INCREMENT)&lt;/div&gt;&lt;div&gt;&lt;br&gt;&lt;/div&gt;&lt;div&gt;- bank_name (VARCHAR(100))&lt;/div&gt;&lt;div&gt;&lt;br&gt;&lt;/div&gt;&lt;div&gt;- branch_name (VARCHAR(100))&lt;/div&gt;&lt;div&gt;&lt;br&gt;&lt;/div&gt;&lt;div&gt;- ifsc_code (VARCHAR(11), UNIQUE)&lt;/div&gt;&lt;div&gt;&lt;br&gt;&lt;/div&gt;&lt;div&gt;- address (TEXT)&lt;/div&gt;&lt;div&gt;&lt;br&gt;&lt;/div&gt;&lt;div&gt;- created_at (DATETIME)&lt;/div&gt;&lt;/div&gt;" style="rounded=0;whiteSpace=wrap;html=1;align=left;" vertex="1" parent="1">
          <mxGeometry x="-750" y="-570" width="240" height="230" as="geometry" />
        </mxCell>
        <mxCell id="ADrp1U_Bql61wqkcuQXL-22" value="" style="edgeStyle=orthogonalEdgeStyle;rounded=0;orthogonalLoop=1;jettySize=auto;html=1;" edge="1" parent="1" source="ATuWQ-v3E2589OPJfiS1-5" target="ADrp1U_Bql61wqkcuQXL-21">
          <mxGeometry relative="1" as="geometry" />
        </mxCell>
        <mxCell id="ADrp1U_Bql61wqkcuQXL-24" value="1" style="edgeLabel;html=1;align=center;verticalAlign=middle;resizable=0;points=[];" connectable="0" vertex="1" parent="ADrp1U_Bql61wqkcuQXL-22">
          <mxGeometry x="0.0989" y="-2" relative="1" as="geometry">
            <mxPoint as="offset" />
          </mxGeometry>
        </mxCell>
        <mxCell id="ATuWQ-v3E2589OPJfiS1-5" value="BENEFICIARIES&lt;div&gt;&lt;br&gt;&lt;/div&gt;&lt;div&gt;&lt;div style=&quot;text-align: left;&quot;&gt;- beneficiary_id (PK, INT,AUTO_INCREMENT)&lt;/div&gt;&lt;div style=&quot;text-align: left;&quot;&gt;&lt;br&gt;&lt;/div&gt;&lt;div style=&quot;text-align: left;&quot;&gt;- customer_id (FK → Customers.customer_id)&lt;/div&gt;&lt;div style=&quot;text-align: left;&quot;&gt;&lt;br&gt;&lt;/div&gt;&lt;div style=&quot;text-align: left;&quot;&gt;- account_name (VARCHAR(100))&lt;/div&gt;&lt;div style=&quot;text-align: left;&quot;&gt;&lt;br&gt;&lt;/div&gt;&lt;div style=&quot;text-align: left;&quot;&gt;- account_number (VARCHAR(20))&lt;/div&gt;&lt;div style=&quot;text-align: left;&quot;&gt;&lt;br&gt;&lt;/div&gt;&lt;div style=&quot;text-align: left;&quot;&gt;- bank_name (VARCHAR(100))&lt;/div&gt;&lt;div style=&quot;text-align: left;&quot;&gt;&lt;br&gt;&lt;/div&gt;&lt;div style=&quot;text-align: left;&quot;&gt;- branch_name (VARCHAR(100))&lt;/div&gt;&lt;div style=&quot;text-align: left;&quot;&gt;&lt;br&gt;&lt;/div&gt;&lt;div style=&quot;text-align: left;&quot;&gt;- ifsc_code (VARCHAR(11))&lt;/div&gt;&lt;div style=&quot;text-align: left;&quot;&gt;&lt;br&gt;&lt;/div&gt;&lt;div style=&quot;text-align: left;&quot;&gt;- created_at (DATETIME)&lt;/div&gt;&lt;/div&gt;&lt;div&gt;&lt;br&gt;&lt;/div&gt;" style="rounded=0;whiteSpace=wrap;html=1;" vertex="1" parent="1">
          <mxGeometry x="-780" y="-1020" width="280" height="300" as="geometry" />
        </mxCell>
        <mxCell id="ATuWQ-v3E2589OPJfiS1-6" value="LOANS&lt;div&gt;&lt;br&gt;&lt;/div&gt;&lt;div&gt;&lt;div style=&quot;text-align: left;&quot;&gt;- loan_id (PK, INT, AUTO_INCREMENT)&lt;/div&gt;&lt;div style=&quot;text-align: left;&quot;&gt;&lt;br&gt;&lt;/div&gt;&lt;div style=&quot;text-align: left;&quot;&gt;- customer_id (FK → Customers.customer_id)&lt;/div&gt;&lt;div style=&quot;text-align: left;&quot;&gt;&lt;br&gt;&lt;/div&gt;&lt;div style=&quot;text-align: left;&quot;&gt;- loan_type (VARCHAR(50))&lt;/div&gt;&lt;div style=&quot;text-align: left;&quot;&gt;&lt;br&gt;&lt;/div&gt;&lt;div style=&quot;text-align: left;&quot;&gt;- loan_amount (DECIMAL(15,2))&lt;/div&gt;&lt;div style=&quot;text-align: left;&quot;&gt;&lt;br&gt;&lt;/div&gt;&lt;div style=&quot;text-align: left;&quot;&gt;- interest_rate (DECIMAL(5,2))&lt;/div&gt;&lt;div style=&quot;text-align: left;&quot;&gt;&lt;br&gt;&lt;/div&gt;&lt;div style=&quot;text-align: left;&quot;&gt;- tenure (INT) — months&lt;/div&gt;&lt;div style=&quot;text-align: left;&quot;&gt;&lt;br&gt;&lt;/div&gt;&lt;div style=&quot;text-align: left;&quot;&gt;- purpose (TEXT)&lt;/div&gt;&lt;div style=&quot;text-align: left;&quot;&gt;&lt;br&gt;&lt;/div&gt;&lt;div style=&quot;text-align: left;&quot;&gt;- status (ENUM: &#39;Pending&#39;, &#39;Approved&#39;, &#39;Rejected&#39;, &#39;Disbursed&#39;, &#39;Repaid&#39;)&lt;/div&gt;&lt;div style=&quot;text-align: left;&quot;&gt;&lt;br&gt;&lt;/div&gt;&lt;div style=&quot;text-align: left;&quot;&gt;- application_date (DATETIME)&lt;/div&gt;&lt;div style=&quot;text-align: left;&quot;&gt;&lt;br&gt;&lt;/div&gt;&lt;div style=&quot;text-align: left;&quot;&gt;- disbursement_date (DATETIME, NULLABLE)&lt;/div&gt;&lt;div style=&quot;text-align: left;&quot;&gt;&lt;br&gt;&lt;/div&gt;&lt;div style=&quot;text-align: left;&quot;&gt;- employee_id (FK → Bank_Employees.employee_id, NULLABLE)&lt;/div&gt;&lt;/div&gt;&lt;div style=&quot;text-align: left;&quot;&gt;&lt;br&gt;&lt;/div&gt;" style="rounded=0;whiteSpace=wrap;html=1;" vertex="1" parent="1">
          <mxGeometry x="315" y="-620" width="260" height="410" as="geometry" />
        </mxCell>
        <mxCell id="ATuWQ-v3E2589OPJfiS1-7" value="LOAN REPAYMENT&lt;div&gt;&lt;br&gt;&lt;/div&gt;&lt;div&gt;&lt;div style=&quot;text-align: left;&quot;&gt;- repayment_id (PK, INT, AUTO_INCREMENT)&lt;/div&gt;&lt;div style=&quot;text-align: left;&quot;&gt;&lt;br&gt;&lt;/div&gt;&lt;div style=&quot;text-align: left;&quot;&gt;- loan_id (FK → Loans.loan_id)&lt;/div&gt;&lt;div style=&quot;text-align: left;&quot;&gt;&lt;br&gt;&lt;/div&gt;&lt;div style=&quot;text-align: left;&quot;&gt;- amount (DECIMAL(15,2))&lt;/div&gt;&lt;div style=&quot;text-align: left;&quot;&gt;&lt;br&gt;&lt;/div&gt;&lt;div style=&quot;text-align: left;&quot;&gt;- repayment_date (DATETIME)&lt;/div&gt;&lt;div style=&quot;text-align: left;&quot;&gt;&lt;br&gt;&lt;/div&gt;&lt;div style=&quot;text-align: left;&quot;&gt;- status (ENUM: &#39;Completed&#39;, &#39;Pending&#39;, &#39;Failed&#39;)&lt;/div&gt;&lt;/div&gt;&lt;div style=&quot;text-align: left;&quot;&gt;&lt;br&gt;&lt;/div&gt;" style="rounded=0;whiteSpace=wrap;html=1;" vertex="1" parent="1">
          <mxGeometry x="-790" y="-230" width="320" height="250" as="geometry" />
        </mxCell>
        <mxCell id="ATuWQ-v3E2589OPJfiS1-8" value="ADMIN&lt;div&gt;&lt;br&gt;&lt;/div&gt;&lt;div&gt;&lt;div style=&quot;text-align: left;&quot;&gt;- admin_id (PK, INT, AUTO_INCREMENT)&lt;/div&gt;&lt;div style=&quot;text-align: left;&quot;&gt;&lt;br&gt;&lt;/div&gt;&lt;div style=&quot;text-align: left;&quot;&gt;- name (VARCHAR(100))&lt;/div&gt;&lt;div style=&quot;text-align: left;&quot;&gt;&lt;br&gt;&lt;/div&gt;&lt;div style=&quot;text-align: left;&quot;&gt;- email (VARCHAR(100), UNIQUE)&lt;/div&gt;&lt;div style=&quot;text-align: left;&quot;&gt;&lt;br&gt;&lt;/div&gt;&lt;div style=&quot;text-align: left;&quot;&gt;- password (VARCHAR(255))&lt;/div&gt;&lt;div style=&quot;text-align: left;&quot;&gt;&lt;br&gt;&lt;/div&gt;&lt;div style=&quot;text-align: left;&quot;&gt;- created_at (DATETIME)&lt;/div&gt;&lt;div style=&quot;text-align: left;&quot;&gt;&lt;br&gt;&lt;/div&gt;&lt;div style=&quot;text-align: left;&quot;&gt;- updated_at (DATETIME)&lt;/div&gt;&lt;/div&gt;&lt;div style=&quot;text-align: left;&quot;&gt;&lt;br&gt;&lt;/div&gt;" style="rounded=0;whiteSpace=wrap;html=1;" vertex="1" parent="1">
          <mxGeometry x="-425" width="260" height="280" as="geometry" />
        </mxCell>
        <mxCell id="ATuWQ-v3E2589OPJfiS1-9" value="BANK EMPLOYEE&lt;div&gt;&lt;br&gt;&lt;/div&gt;&lt;div&gt;&lt;div style=&quot;text-align: left;&quot;&gt;- employee_id (PK, INT, AUTO_INCREMENT)&lt;/div&gt;&lt;div style=&quot;text-align: left;&quot;&gt;&lt;br&gt;&lt;/div&gt;&lt;div style=&quot;text-align: left;&quot;&gt;- name (VARCHAR(100))&lt;/div&gt;&lt;div style=&quot;text-align: left;&quot;&gt;&lt;br&gt;&lt;/div&gt;&lt;div style=&quot;text-align: left;&quot;&gt;- email (VARCHAR(100), UNIQUE)&lt;/div&gt;&lt;div style=&quot;text-align: left;&quot;&gt;&lt;br&gt;&lt;/div&gt;&lt;div style=&quot;text-align: left;&quot;&gt;- password (VARCHAR(255))&lt;/div&gt;&lt;div style=&quot;text-align: left;&quot;&gt;&lt;br&gt;&lt;/div&gt;&lt;div style=&quot;text-align: left;&quot;&gt;- role (VARCHAR(50))&lt;/div&gt;&lt;div style=&quot;text-align: left;&quot;&gt;&lt;br&gt;&lt;/div&gt;&lt;div style=&quot;text-align: left;&quot;&gt;- created_at (DATETIME)&lt;/div&gt;&lt;div style=&quot;text-align: left;&quot;&gt;&lt;br&gt;&lt;/div&gt;&lt;div style=&quot;text-align: left;&quot;&gt;- updated_at (DATETIME)&lt;/div&gt;&lt;/div&gt;&lt;div style=&quot;text-align: left;&quot;&gt;&lt;br&gt;&lt;/div&gt;" style="rounded=0;whiteSpace=wrap;html=1;" vertex="1" parent="1">
          <mxGeometry x="260" y="-120" width="290" height="290" as="geometry" />
        </mxCell>
        <mxCell id="ATuWQ-v3E2589OPJfiS1-11" value="CREATES" style="rhombus;whiteSpace=wrap;html=1;" vertex="1" parent="1">
          <mxGeometry x="-142.5" y="-710" width="75" height="60" as="geometry" />
        </mxCell>
        <mxCell id="ATuWQ-v3E2589OPJfiS1-16" value="" style="edgeStyle=orthogonalEdgeStyle;rounded=0;orthogonalLoop=1;jettySize=auto;html=1;" edge="1" parent="1" source="ATuWQ-v3E2589OPJfiS1-14" target="ATuWQ-v3E2589OPJfiS1-6">
          <mxGeometry relative="1" as="geometry" />
        </mxCell>
        <mxCell id="ATuWQ-v3E2589OPJfiS1-18" value="N" style="edgeLabel;html=1;align=center;verticalAlign=middle;resizable=0;points=[];" vertex="1" connectable="0" parent="ATuWQ-v3E2589OPJfiS1-16">
          <mxGeometry x="-0.2522" y="-1" relative="1" as="geometry">
            <mxPoint as="offset" />
          </mxGeometry>
        </mxCell>
        <mxCell id="ATuWQ-v3E2589OPJfiS1-14" value="TAKES" style="rhombus;whiteSpace=wrap;html=1;rounded=0;" vertex="1" parent="1">
          <mxGeometry x="130" y="-455" width="80" height="80" as="geometry" />
        </mxCell>
        <mxCell id="ADrp1U_Bql61wqkcuQXL-1" value="&lt;div style=&quot;text-align: center;&quot;&gt;&lt;span style=&quot;background-color: transparent; color: light-dark(rgb(0, 0, 0), rgb(255, 255, 255));&quot;&gt;USER&lt;/span&gt;&lt;/div&gt;&lt;div&gt;&lt;span style=&quot;background-color: transparent; color: light-dark(rgb(0, 0, 0), rgb(255, 255, 255));&quot;&gt;-user_id (Primary Key)&lt;/span&gt;&lt;/div&gt;&lt;div&gt;&lt;span style=&quot;background-color: transparent; color: light-dark(rgb(0, 0, 0), rgb(255, 255, 255));&quot;&gt;&lt;br&gt;&lt;/span&gt;&lt;/div&gt;&lt;div&gt;&lt;span style=&quot;background-color: transparent; color: light-dark(rgb(0, 0, 0), rgb(255, 255, 255));&quot;&gt;-email&lt;/span&gt;&lt;/div&gt;&lt;div&gt;&lt;span style=&quot;background-color: transparent; color: light-dark(rgb(0, 0, 0), rgb(255, 255, 255));&quot;&gt;&lt;br&gt;&lt;/span&gt;&lt;/div&gt;&lt;div&gt;&lt;span style=&quot;background-color: transparent; color: light-dark(rgb(0, 0, 0), rgb(255, 255, 255));&quot;&gt;-password&lt;/span&gt;&lt;/div&gt;&lt;div&gt;&lt;span style=&quot;background-color: transparent; color: light-dark(rgb(0, 0, 0), rgb(255, 255, 255));&quot;&gt;&lt;br&gt;&lt;/span&gt;&lt;/div&gt;&lt;div&gt;&lt;span style=&quot;background-color: transparent; color: light-dark(rgb(0, 0, 0), rgb(255, 255, 255));&quot;&gt;-role (CUSTOMER/EMPLOYEE/ADMIN)&lt;/span&gt;&lt;/div&gt;&lt;div&gt;&lt;span style=&quot;background-color: transparent; color: light-dark(rgb(0, 0, 0), rgb(255, 255, 255));&quot;&gt;&lt;br&gt;&lt;/span&gt;&lt;/div&gt;&lt;div&gt;&lt;span style=&quot;background-color: transparent; color: light-dark(rgb(0, 0, 0), rgb(255, 255, 255));&quot;&gt;-is_active&lt;/span&gt;&lt;/div&gt;" style="rounded=0;whiteSpace=wrap;html=1;align=left;" vertex="1" parent="1">
          <mxGeometry x="-90" width="220" height="250" as="geometry" />
        </mxCell>
        <mxCell id="ADrp1U_Bql61wqkcuQXL-5" style="edgeStyle=orthogonalEdgeStyle;rounded=0;orthogonalLoop=1;jettySize=auto;html=1;entryX=0.5;entryY=0;entryDx=0;entryDy=0;" edge="1" parent="1" source="ADrp1U_Bql61wqkcuQXL-3" target="ADrp1U_Bql61wqkcuQXL-1">
          <mxGeometry relative="1" as="geometry" />
        </mxCell>
        <mxCell id="ADrp1U_Bql61wqkcuQXL-3" value="HAS" style="rhombus;whiteSpace=wrap;html=1;rounded=0;" vertex="1" parent="1">
          <mxGeometry x="-145" y="-150" width="80" height="80" as="geometry" />
        </mxCell>
        <mxCell id="ADrp1U_Bql61wqkcuQXL-8" style="edgeStyle=orthogonalEdgeStyle;rounded=0;orthogonalLoop=1;jettySize=auto;html=1;entryX=0;entryY=0.5;entryDx=0;entryDy=0;" edge="1" parent="1" source="ADrp1U_Bql61wqkcuQXL-6" target="ATuWQ-v3E2589OPJfiS1-2">
          <mxGeometry relative="1" as="geometry" />
        </mxCell>
        <mxCell id="ADrp1U_Bql61wqkcuQXL-10" value="N" style="edgeLabel;html=1;align=center;verticalAlign=middle;resizable=0;points=[];" connectable="0" vertex="1" parent="ADrp1U_Bql61wqkcuQXL-8">
          <mxGeometry x="0.0346" y="-3" relative="1" as="geometry">
            <mxPoint y="1" as="offset" />
          </mxGeometry>
        </mxCell>
        <mxCell id="ADrp1U_Bql61wqkcuQXL-6" value="HAS" style="rhombus;whiteSpace=wrap;html=1;align=left;rounded=0;" vertex="1" parent="1">
          <mxGeometry x="-450" y="-495" width="80" height="80" as="geometry" />
        </mxCell>
        <mxCell id="ADrp1U_Bql61wqkcuQXL-13" style="edgeStyle=orthogonalEdgeStyle;rounded=0;orthogonalLoop=1;jettySize=auto;html=1;entryX=1;entryY=0.5;entryDx=0;entryDy=0;" edge="1" parent="1" source="ADrp1U_Bql61wqkcuQXL-11" target="ATuWQ-v3E2589OPJfiS1-5">
          <mxGeometry relative="1" as="geometry">
            <Array as="points">
              <mxPoint x="-320" y="-870" />
            </Array>
          </mxGeometry>
        </mxCell>
        <mxCell id="ADrp1U_Bql61wqkcuQXL-15" value="N" style="edgeLabel;html=1;align=center;verticalAlign=middle;resizable=0;points=[];" connectable="0" vertex="1" parent="ADrp1U_Bql61wqkcuQXL-13">
          <mxGeometry x="0.7229" y="-4" relative="1" as="geometry">
            <mxPoint as="offset" />
          </mxGeometry>
        </mxCell>
        <mxCell id="ADrp1U_Bql61wqkcuQXL-11" value="MANAGES" style="rhombus;whiteSpace=wrap;html=1;rounded=0;" vertex="1" parent="1">
          <mxGeometry x="-360" y="-360" width="80" height="80" as="geometry" />
        </mxCell>
        <mxCell id="ADrp1U_Bql61wqkcuQXL-18" style="edgeStyle=orthogonalEdgeStyle;rounded=0;orthogonalLoop=1;jettySize=auto;html=1;entryX=0;entryY=0.5;entryDx=0;entryDy=0;" edge="1" parent="1" source="ADrp1U_Bql61wqkcuQXL-16" target="ATuWQ-v3E2589OPJfiS1-3">
          <mxGeometry relative="1" as="geometry" />
        </mxCell>
        <mxCell id="ADrp1U_Bql61wqkcuQXL-20" value="N" style="edgeLabel;html=1;align=center;verticalAlign=middle;resizable=0;points=[];" connectable="0" vertex="1" parent="ADrp1U_Bql61wqkcuQXL-18">
          <mxGeometry x="-0.1092" y="-3" relative="1" as="geometry">
            <mxPoint as="offset" />
          </mxGeometry>
        </mxCell>
        <mxCell id="ADrp1U_Bql61wqkcuQXL-16" value="HAS" style="rhombus;whiteSpace=wrap;html=1;rounded=0;" vertex="1" parent="1">
          <mxGeometry x="150" y="-955" width="80" height="80" as="geometry" />
        </mxCell>
        <mxCell id="ADrp1U_Bql61wqkcuQXL-23" style="edgeStyle=orthogonalEdgeStyle;rounded=0;orthogonalLoop=1;jettySize=auto;html=1;entryX=0.5;entryY=0;entryDx=0;entryDy=0;" edge="1" parent="1" source="ADrp1U_Bql61wqkcuQXL-21" target="ATuWQ-v3E2589OPJfiS1-3">
          <mxGeometry relative="1" as="geometry" />
        </mxCell>
        <mxCell id="ADrp1U_Bql61wqkcuQXL-25" value="N" style="edgeLabel;html=1;align=center;verticalAlign=middle;resizable=0;points=[];" connectable="0" vertex="1" parent="ADrp1U_Bql61wqkcuQXL-23">
          <mxGeometry x="0.8141" y="3" relative="1" as="geometry">
            <mxPoint y="1" as="offset" />
          </mxGeometry>
        </mxCell>
        <mxCell id="ADrp1U_Bql61wqkcuQXL-21" value="CONTAINS" style="rhombus;whiteSpace=wrap;html=1;rounded=0;" vertex="1" parent="1">
          <mxGeometry x="-680" y="-1290" width="80" height="80" as="geometry" />
        </mxCell>
        <mxCell id="ADrp1U_Bql61wqkcuQXL-28" value="" style="endArrow=classic;html=1;rounded=0;exitX=1;exitY=1;exitDx=0;exitDy=0;entryX=0;entryY=0;entryDx=0;entryDy=0;" edge="1" parent="1" source="ATuWQ-v3E2589OPJfiS1-1" target="ATuWQ-v3E2589OPJfiS1-9">
          <mxGeometry width="50" height="50" relative="1" as="geometry">
            <mxPoint x="290" y="-90" as="sourcePoint" />
            <mxPoint x="280" y="-90" as="targetPoint" />
            <Array as="points">
              <mxPoint x="80" y="-190" />
            </Array>
          </mxGeometry>
        </mxCell>
        <mxCell id="ADrp1U_Bql61wqkcuQXL-29" value="CAN APPLY" style="rhombus;whiteSpace=wrap;html=1;rotation=20;" vertex="1" parent="1">
          <mxGeometry x="90" y="-210" width="100" height="80" as="geometry" />
        </mxCell>
        <mxCell id="ADrp1U_Bql61wqkcuQXL-30" value="" style="endArrow=classic;html=1;rounded=0;entryX=1;entryY=0.5;entryDx=0;entryDy=0;exitX=0;exitY=1;exitDx=0;exitDy=0;" edge="1" parent="1" source="ATuWQ-v3E2589OPJfiS1-1" target="ATuWQ-v3E2589OPJfiS1-7">
          <mxGeometry width="50" height="50" relative="1" as="geometry">
            <mxPoint x="-390" y="-210" as="sourcePoint" />
            <mxPoint x="-340" y="-260" as="targetPoint" />
          </mxGeometry>
        </mxCell>
        <mxCell id="ADrp1U_Bql61wqkcuQXL-31" value="CAN PAY" style="rhombus;whiteSpace=wrap;html=1;rotation=-32;" vertex="1" parent="1">
          <mxGeometry x="-390" y="-200" width="80" height="80" as="geometry" />
        </mxCell>
        <mxCell id="ADrp1U_Bql61wqkcuQXL-32" value="1" style="text;strokeColor=none;align=center;fillColor=none;html=1;verticalAlign=middle;whiteSpace=wrap;rounded=0;" vertex="1" parent="1">
          <mxGeometry x="-320" y="-220" width="60" height="30" as="geometry" />
        </mxCell>
        <mxCell id="ADrp1U_Bql61wqkcuQXL-33" value="N" style="text;strokeColor=none;align=center;fillColor=none;html=1;verticalAlign=middle;whiteSpace=wrap;rounded=0;" vertex="1" parent="1">
          <mxGeometry x="-450" y="-160" width="60" height="30" as="geometry" />
        </mxCell>
        <mxCell id="ADrp1U_Bql61wqkcuQXL-34" value="" style="endArrow=classic;html=1;rounded=0;entryX=0.5;entryY=0;entryDx=0;entryDy=0;exitX=0.25;exitY=1;exitDx=0;exitDy=0;" edge="1" parent="1" source="ATuWQ-v3E2589OPJfiS1-1" target="ATuWQ-v3E2589OPJfiS1-8">
          <mxGeometry width="50" height="50" relative="1" as="geometry">
            <mxPoint x="-430" y="-150" as="sourcePoint" />
            <mxPoint x="-380" y="-200" as="targetPoint" />
          </mxGeometry>
        </mxCell>
        <mxCell id="ADrp1U_Bql61wqkcuQXL-35" value="HAS" style="rhombus;whiteSpace=wrap;html=1;rotation=-30;" vertex="1" parent="1">
          <mxGeometry x="-260" y="-145" width="80" height="80" as="geometry" />
        </mxCell>
      </root>
    </mxGraphModel>
  </diagram>
</mxfile>
